<svg width="29" height="29" viewBox="0 0 29 29" fill="none" xmlns="http://www.w3.org/2000/svg">
<mask id="mask0_1_2129" style="mask-type:alpha" maskUnits="userSpaceOnUse" x="0" y="0" width="29" height="29">
<rect y="0.1875" width="28.4444" height="28.4444" fill="#D9D9D9"/>
</mask>
<g mask="url(#mask0_1_2129)">
<path d="M7.1099 23.653C6.5173 23.653 6.0136 23.4455 5.59878 23.0307C5.18397 22.6159 4.97656 22.1122 4.97656 21.5196C4.97656 20.927 5.18397 20.4233 5.59878 20.0085C6.0136 19.5937 6.5173 19.3863 7.1099 19.3863C7.70249 19.3863 8.20619 19.5937 8.62101 20.0085C9.03582 20.4233 9.24323 20.927 9.24323 21.5196C9.24323 22.1122 9.03582 22.6159 8.62101 23.0307C8.20619 23.4455 7.70249 23.653 7.1099 23.653ZM16.5914 23.653C15.9988 23.653 15.4951 23.4455 15.0803 23.0307C14.6655 22.6159 14.458 22.1122 14.458 21.5196C14.458 20.927 14.6655 20.4233 15.0803 20.0085C15.4951 19.5937 15.9988 19.3863 16.5914 19.3863C17.184 19.3863 17.6877 19.5937 18.1025 20.0085C18.5173 20.4233 18.7247 20.927 18.7247 21.5196C18.7247 22.1122 18.5173 22.6159 18.1025 23.0307C17.6877 23.4455 17.184 23.653 16.5914 23.653ZM11.8506 18.9122C11.258 18.9122 10.7543 18.7048 10.3395 18.29C9.92471 17.8752 9.7173 17.3715 9.7173 16.7789C9.7173 16.1863 9.92471 15.6826 10.3395 15.2678C10.7543 14.853 11.258 14.6455 11.8506 14.6455C12.4432 14.6455 12.9469 14.853 13.3617 15.2678C13.7766 15.6826 13.984 16.1863 13.984 16.7789C13.984 17.3715 13.7766 17.8752 13.3617 18.29C12.9469 18.7048 12.4432 18.9122 11.8506 18.9122ZM21.3321 18.9122C20.7395 18.9122 20.2358 18.7048 19.821 18.29C19.4062 17.8752 19.1988 17.3715 19.1988 16.7789C19.1988 16.1863 19.4062 15.6826 19.821 15.2678C20.2358 14.853 20.7395 14.6455 21.3321 14.6455C21.9247 14.6455 22.4284 14.853 22.8432 15.2678C23.258 15.6826 23.4655 16.1863 23.4655 16.7789C23.4655 17.3715 23.258 17.8752 22.8432 18.29C22.4284 18.7048 21.9247 18.9122 21.3321 18.9122ZM7.1099 14.1715C6.5173 14.1715 6.0136 13.9641 5.59878 13.5492C5.18397 13.1344 4.97656 12.6307 4.97656 12.0381C4.97656 11.4455 5.18397 10.9418 5.59878 10.527C6.0136 10.1122 6.5173 9.9048 7.1099 9.9048C7.70249 9.9048 8.20619 10.1122 8.62101 10.527C9.03582 10.9418 9.24323 11.4455 9.24323 12.0381C9.24323 12.6307 9.03582 13.1344 8.62101 13.5492C8.20619 13.9641 7.70249 14.1715 7.1099 14.1715ZM16.5914 14.1715C15.9988 14.1715 15.4951 13.9641 15.0803 13.5492C14.6655 13.1344 14.458 12.6307 14.458 12.0381C14.458 11.4455 14.6655 10.9418 15.0803 10.527C15.4951 10.1122 15.9988 9.9048 16.5914 9.9048C17.184 9.9048 17.6877 10.1122 18.1025 10.527C18.5173 10.9418 18.7247 11.4455 18.7247 12.0381C18.7247 12.6307 18.5173 13.1344 18.1025 13.5492C17.6877 13.9641 17.184 14.1715 16.5914 14.1715ZM11.8506 9.43073C11.258 9.43073 10.7543 9.22332 10.3395 8.80851C9.92471 8.39369 9.7173 7.88999 9.7173 7.2974C9.7173 6.7048 9.92471 6.2011 10.3395 5.78628C10.7543 5.37147 11.258 5.16406 11.8506 5.16406C12.4432 5.16406 12.9469 5.37147 13.3617 5.78628C13.7766 6.2011 13.984 6.7048 13.984 7.2974C13.984 7.88999 13.7766 8.39369 13.3617 8.80851C12.9469 9.22332 12.4432 9.43073 11.8506 9.43073ZM21.3321 9.43073C20.7395 9.43073 20.2358 9.22332 19.821 8.80851C19.4062 8.39369 19.1988 7.88999 19.1988 7.2974C19.1988 6.7048 19.4062 6.2011 19.821 5.78628C20.2358 5.37147 20.7395 5.16406 21.3321 5.16406C21.9247 5.16406 22.4284 5.37147 22.8432 5.78628C23.258 6.2011 23.4655 6.7048 23.4655 7.2974C23.4655 7.88999 23.258 8.39369 22.8432 8.80851C22.4284 9.22332 21.9247 9.43073 21.3321 9.43073Z" fill="#333333"/>
</g>
</svg>
